<svg width="32" height="32" viewBox="0 0 32 32" fill="none" xmlns="http://www.w3.org/2000/svg">
<path d="M19.9365 3.56317C20.1252 3.55487 20.3138 3.58458 20.4912 3.64911C20.6685 3.71354 20.8315 3.81183 20.9707 3.93915C21.1099 4.06653 21.2229 4.22038 21.3027 4.3913C21.3825 4.56226 21.4282 4.74773 21.4365 4.93622C21.4448 5.12473 21.416 5.31356 21.3516 5.49091L13.3516 27.4909C13.2508 27.7682 13.0668 28.0081 12.8252 28.1774C12.5835 28.3467 12.2951 28.4372 12 28.4372C11.8745 28.4374 11.7496 28.4211 11.6289 28.3884L11.5088 28.3503C11.1507 28.2201 10.8585 27.9524 10.6973 27.6071C10.5362 27.262 10.5185 26.8666 10.6484 26.5085L18.6484 4.50848C18.7129 4.33112 18.812 4.1682 18.9395 4.02899C19.0669 3.88974 19.2205 3.77682 19.3916 3.69696C19.5627 3.61709 19.7479 3.57148 19.9365 3.56317ZM8.12695 9.57684C8.50447 9.61279 8.85299 9.7962 9.0957 10.0876C9.33833 10.379 9.45575 10.7548 9.42285 11.1325C9.38995 11.5101 9.20905 11.8592 8.91992 12.1042L4.30273 15.9518L4.24512 15.9997L4.30273 16.0475L8.91992 19.8952V19.8962C9.06663 20.0164 9.18813 20.1643 9.27734 20.3317C9.36657 20.4992 9.42246 20.6829 9.44043 20.8718C9.45836 21.0606 9.43882 21.2511 9.38281 21.4323C9.32677 21.6136 9.23472 21.7816 9.11328 21.9274C8.99184 22.0732 8.84296 22.194 8.6748 22.2819C8.5067 22.3697 8.32274 22.4237 8.13379 22.4401C7.9448 22.4566 7.75403 22.4351 7.57324 22.3776C7.39256 22.3201 7.2248 22.2277 7.08008 22.1052V22.1042L1.08008 17.1042C0.918204 16.9693 0.787646 16.8008 0.698242 16.61C0.608824 16.4192 0.5625 16.2105 0.5625 15.9997C0.562547 15.7891 0.608908 15.5811 0.698242 15.3903C0.78766 15.1995 0.918133 15.0301 1.08008 14.8952L7.0791 9.89618C7.37244 9.65578 7.7494 9.54092 8.12695 9.57684ZM23.8662 9.56024C24.055 9.54383 24.2451 9.56536 24.4258 9.62274C24.6066 9.68023 24.7751 9.7726 24.9199 9.8952L30.9199 14.8952C31.0819 15.0301 31.2123 15.1995 31.3018 15.3903C31.3911 15.581 31.4375 15.7891 31.4375 15.9997C31.4375 16.2105 31.3912 16.4192 31.3018 16.61C31.2124 16.8008 31.0818 16.9693 30.9199 17.1042L24.9199 22.1042V22.1052C24.7751 22.2278 24.6066 22.3201 24.4258 22.3776C24.2452 22.435 24.055 22.4565 23.8662 22.4401C23.6773 22.4237 23.4933 22.3697 23.3252 22.2819C23.157 22.194 23.0072 22.0732 22.8857 21.9274C22.7645 21.7817 22.6732 21.6134 22.6172 21.4323C22.5612 21.2511 22.5416 21.0606 22.5596 20.8718C22.5775 20.6829 22.6325 20.4991 22.7217 20.3317C22.8108 20.1644 22.9325 20.0164 23.0791 19.8962L23.0801 19.8952L27.6973 16.0475L27.7549 15.9997L27.6973 15.9518L23.0801 12.1042H23.0791C22.9325 11.984 22.8108 11.836 22.7217 11.6686C22.6325 11.5012 22.5776 11.3175 22.5596 11.1286C22.5416 10.9398 22.5612 10.7492 22.6172 10.5681C22.6732 10.3868 22.7643 10.2177 22.8857 10.072C23.0072 9.92617 23.157 9.80633 23.3252 9.71844C23.4933 9.63062 23.6773 9.5767 23.8662 9.56024Z" fill="#40597B" stroke="#40597B" stroke-width="0.125"/>
</svg>
