<svg width="32" height="32" viewBox="0 0 32 32" fill="none" xmlns="http://www.w3.org/2000/svg">
<path d="M13 2.5625H19C19.6465 2.5625 20.2665 2.81925 20.7236 3.27637C21.1808 3.73349 21.4375 4.35353 21.4375 5V10.5625H27C27.6465 10.5625 28.2665 10.8192 28.7236 11.2764C29.1808 11.7335 29.4375 12.3535 29.4375 13V19C29.4375 19.6465 29.1808 20.2665 28.7236 20.7236C28.2665 21.1808 27.6465 21.4375 27 21.4375H21.4375V27C21.4375 27.6465 21.1808 28.2665 20.7236 28.7236C20.2665 29.1808 19.6465 29.4375 19 29.4375H13C12.3535 29.4375 11.7335 29.1808 11.2764 28.7236C10.8192 28.2665 10.5625 27.6465 10.5625 27V21.4375H5C4.35353 21.4375 3.73349 21.1808 3.27637 20.7236C2.81925 20.2665 2.5625 19.6465 2.5625 19V13C2.5625 12.3535 2.81925 11.7335 3.27637 11.2764C3.73349 10.8192 4.35353 10.5625 5 10.5625H10.5625V5C10.5625 4.35353 10.8192 3.73349 11.2764 3.27637C11.7335 2.81925 12.3535 2.5625 13 2.5625ZM13.4375 12C13.4375 12.3812 13.2862 12.747 13.0166 13.0166C12.747 13.2862 12.3812 13.4375 12 13.4375H5.4375V18.5625H12C12.3812 18.5625 12.747 18.7138 13.0166 18.9834C13.2862 19.253 13.4375 19.6188 13.4375 20V26.5625H18.5625V20C18.5625 19.6188 18.7138 19.253 18.9834 18.9834C19.253 18.7138 19.6188 18.5625 20 18.5625H26.5625V13.4375H20C19.6188 13.4375 19.253 13.2862 18.9834 13.0166C18.7138 12.747 18.5625 12.3812 18.5625 12V5.4375H13.4375V12Z" fill="#40597B" stroke="#40597B" stroke-width="0.125"/>
</svg>
