<svg width="32" height="32" viewBox="0 0 32 32" fill="none" xmlns="http://www.w3.org/2000/svg">
<path d="M16 9.5625C17.7067 9.56448 19.343 10.2434 20.5498 11.4502C21.7566 12.657 22.4355 14.2933 22.4375 16L22.4326 16.2383C22.3886 17.4279 22.0156 18.5837 21.3525 19.5762C20.6452 20.6347 19.64 21.46 18.4639 21.9473C17.2876 22.4345 15.9929 22.5619 14.7441 22.3135C13.4954 22.0651 12.3485 21.452 11.4482 20.5518C10.548 19.6515 9.93492 18.5046 9.68652 17.2559C9.43813 16.0071 9.5655 14.7124 10.0527 13.5361C10.54 12.36 11.3653 11.3548 12.4238 10.6475C13.4163 9.98438 14.5721 9.61144 15.7617 9.56738L16 9.5625ZM17.3633 12.709C16.7123 12.4393 15.9957 12.3684 15.3047 12.5059C14.6137 12.6434 13.9786 12.9823 13.4805 13.4805C12.9823 13.9786 12.6434 14.6137 12.5059 15.3047C12.3684 15.9957 12.4393 16.7123 12.709 17.3633C12.9786 18.0141 13.4348 18.5705 14.0205 18.9619C14.6064 19.3534 15.2954 19.5625 16 19.5625C16.9448 19.5625 17.8514 19.1876 18.5195 18.5195C19.1876 17.8514 19.5625 16.9448 19.5625 16C19.5625 15.2954 19.3534 14.6064 18.9619 14.0205C18.5705 13.4348 18.0141 12.9786 17.3633 12.709ZM6.04004 21.6523L6.00879 21.6348L2.53125 19.6533C2.35183 19.5516 2.19609 19.4122 2.0752 19.2451C1.95427 19.0779 1.87048 18.886 1.83008 18.6836C1.47863 16.9129 1.47857 15.09 1.83008 13.3193C1.87015 13.1168 1.95349 12.9253 2.07422 12.7578C2.19516 12.5902 2.35146 12.4497 2.53125 12.3477L6 10.3721L6.03125 10.3535V10.3174L6.04883 6.40039C6.04975 6.19282 6.09594 5.98796 6.18359 5.7998C6.27123 5.61171 6.39838 5.44476 6.55664 5.31055C7.94997 4.12873 9.55482 3.22131 11.2861 2.6377C11.4766 2.57343 11.6788 2.54979 11.8789 2.56836C12.029 2.58231 12.1755 2.62038 12.3135 2.67969L12.4482 2.74609L15.9697 4.71289L16 4.73047L16.0303 4.71289L19.5518 2.74707C19.7269 2.64943 19.9205 2.58966 20.1201 2.57129C20.3197 2.55294 20.521 2.57659 20.7109 2.64062C22.4417 3.22181 24.0466 4.12638 25.4404 5.30566C25.5993 5.44006 25.7275 5.60727 25.8154 5.7959C25.9032 5.98437 25.9494 6.18955 25.9502 6.39746L25.9639 10.3115V10.3477L25.9951 10.3652L29.4688 12.3467H29.4697C29.6493 12.4483 29.8047 12.5878 29.9258 12.7549C30.0469 12.9221 30.1304 13.1139 30.1709 13.3164C30.5232 15.087 30.5245 16.9098 30.1738 18.6807C30.1338 18.8832 30.0504 19.0747 29.9297 19.2422C29.8088 19.4098 29.6525 19.5503 29.4727 19.6523L25.9971 21.6279L25.9648 21.6465V21.6826L25.9473 25.5996C25.9463 25.8071 25.901 26.0121 25.8135 26.2002C25.7258 26.3883 25.5978 26.5552 25.4395 26.6895C24.0461 27.8713 22.4413 28.7787 20.71 29.3623C20.5195 29.4265 20.3173 29.4502 20.1172 29.4316C19.9172 29.413 19.7231 29.3521 19.5479 29.2539L16.0303 27.2871L16 27.2695L15.9697 27.2871L12.4521 29.2529C12.2771 29.3506 12.0834 29.4103 11.8838 29.4287C11.6842 29.4471 11.4829 29.4234 11.293 29.3594H11.292C9.56133 28.7782 7.95623 27.8735 6.5625 26.6943C6.40382 26.56 6.2763 26.3926 6.18848 26.2041C6.10068 26.0156 6.05447 25.8105 6.05371 25.6025L6.04004 21.6885V21.6523ZM23.0771 7.09375L23.0527 7.0752C22.2371 6.46572 21.3444 5.9663 20.3984 5.58984L20.3701 5.57812L20.3447 5.59277L16.9473 7.49121C16.7226 7.6157 16.4687 7.67885 16.2119 7.67285H15.7783C15.5209 7.67971 15.2666 7.61622 15.042 7.49023L11.6484 5.5918L11.6221 5.57715L11.5947 5.58789C10.6504 5.96469 9.75964 6.46512 8.94629 7.0752L8.9209 7.09375V7.125L8.90723 10.916C8.90621 11.1167 8.86362 11.3142 8.78223 11.4961L8.68848 11.6719C8.6146 11.7908 8.54201 11.9095 8.47363 12.0361C8.34548 12.2651 8.15692 12.4544 7.92871 12.584L4.56934 14.4941L4.54199 14.5098L4.53809 14.54C4.40671 15.5095 4.40673 16.4925 4.53809 17.4619L4.54199 17.4932L4.56934 17.5078L7.93164 19.4297C8.15949 19.5584 8.34785 19.7472 8.47559 19.9756L8.68945 20.3379C8.83164 20.5649 8.90807 20.8278 8.90918 21.0957L8.92285 24.875V24.9062L8.94727 24.9248C9.76285 25.5343 10.6556 26.0337 11.6016 26.4102L11.6299 26.4219L11.6553 26.4072L15.0527 24.5117C15.2774 24.3873 15.5313 24.3251 15.7881 24.3311H16.2559C16.5016 24.3311 16.7436 24.3946 16.958 24.5146L20.3516 26.4131L20.3779 26.4277L20.4053 26.417C21.3499 26.0386 22.2406 25.5366 23.0537 24.9248L23.0791 24.9062V24.875L23.0967 21.084C23.0977 20.8833 23.1403 20.6858 23.2217 20.5039L23.3154 20.3281C23.3892 20.2093 23.4608 20.0907 23.5293 19.9639C23.6569 19.7346 23.846 19.5455 24.0742 19.416L27.4346 17.5059L27.4619 17.4902L27.4658 17.46C27.5964 16.4888 27.5949 15.504 27.4619 14.5332L27.458 14.502L27.4307 14.4873L24.0684 12.5703C23.8405 12.4416 23.6522 12.2528 23.5244 12.0244C23.4563 11.9021 23.3833 11.78 23.3105 11.6621L23.2168 11.4854C23.1354 11.3033 23.0917 11.1052 23.0908 10.9043L23.0771 7.125V7.09375Z" fill="#40597B" stroke="#40597B" stroke-width="0.125"/>
</svg>
