<svg width="32" height="32" viewBox="0 0 32 32" fill="none" xmlns="http://www.w3.org/2000/svg">
<path d="M25.7891 17.0947C25.4122 16.9387 24.9977 16.898 24.5977 16.9775C24.1976 17.0571 23.8304 17.2536 23.542 17.542C23.2536 17.8304 23.0571 18.1976 22.9775 18.5977C22.898 18.9977 22.9387 19.4122 23.0947 19.7891C23.2508 20.1659 23.5153 20.4882 23.8545 20.7148C24.1936 20.9414 24.5922 21.0625 25 21.0625C25.547 21.0625 26.0712 20.8448 26.458 20.458C26.8448 20.0712 27.0625 19.547 27.0625 19C27.0625 18.5922 26.9414 18.1936 26.7148 17.8545C26.4882 17.5153 26.1659 17.2508 25.7891 17.0947ZM10.5625 18.3135L10.5107 18.3047C8.56256 17.9553 6.79945 16.932 5.5293 15.4141C4.25907 13.8959 3.56258 11.9795 3.5625 10V5C3.5625 4.35353 3.81925 3.73349 4.27637 3.27637C4.73349 2.81925 5.35353 2.5625 6 2.5625H8C8.38125 2.5625 8.74702 2.71381 9.0166 2.9834C9.28618 3.25298 9.4375 3.61875 9.4375 4C9.4375 4.38125 9.28618 4.74702 9.0166 5.0166C8.74702 5.28619 8.38125 5.4375 8 5.4375H6.4375V10L6.44434 10.2754C6.47614 10.9181 6.61943 11.5515 6.86816 12.1465C7.15234 12.8261 7.56847 13.4426 8.09277 13.96C8.61723 14.4775 9.23935 14.886 9.92285 15.1611C10.6062 15.4362 11.3376 15.5723 12.0742 15.5625C15.102 15.5233 17.5624 12.9794 17.5625 9.89648V5.4375H16C15.6188 5.4375 15.253 5.28619 14.9834 5.0166C14.7138 4.74702 14.5625 4.38125 14.5625 4C14.5625 3.61875 14.7138 3.25298 14.9834 2.9834C15.253 2.71381 15.6188 2.5625 16 2.5625H18C18.32 2.5625 18.6369 2.62559 18.9326 2.74805C19.2283 2.87054 19.4973 3.05002 19.7236 3.27637C19.95 3.50271 20.1295 3.77165 20.252 4.06738C20.3744 4.36307 20.4375 4.67996 20.4375 5V9.89648C20.4374 14.0709 17.4256 17.5835 13.4893 18.3008L13.4375 18.3105V23C13.4375 23.9448 13.8124 24.8514 14.4805 25.5195C15.1486 26.1876 16.0552 26.5625 17 26.5625H20C20.8134 26.5624 21.6021 26.2839 22.2354 25.7734C22.8686 25.2628 23.3089 24.5508 23.4814 23.7559L23.4932 23.7012L23.4395 23.6836C22.577 23.3963 21.8105 22.8757 21.2246 22.1807C20.6389 21.4857 20.2564 20.6426 20.1191 19.7441C19.9819 18.8455 20.0955 17.9261 20.4473 17.0879C20.7991 16.2496 21.3758 15.5247 22.1133 14.9932C22.8507 14.4617 23.7205 14.1439 24.627 14.0752C25.5335 14.0065 26.4418 14.1891 27.251 14.6035C28.0601 15.0179 28.7388 15.6482 29.2129 16.4238C29.687 17.1995 29.9377 18.0909 29.9375 19C29.936 20.0589 29.5947 21.0899 28.9639 21.9404C28.3331 22.7909 27.4454 23.4167 26.4326 23.7256L26.3945 23.7373L26.3896 23.7773C26.1982 25.3377 25.4423 26.774 24.2656 27.8164C23.0889 28.8588 21.572 29.4356 20 29.4375H17C15.2933 29.4355 13.657 28.7566 12.4502 27.5498C11.2434 26.343 10.5645 24.7067 10.5625 23V18.3135Z" fill="#40597B" stroke="#40597B" stroke-width="0.125"/>
</svg>
