<svg width="32" height="32" viewBox="0 0 32 32" fill="none" xmlns="http://www.w3.org/2000/svg">
<path d="M13.4995 3.55359C15.3579 3.55359 17.1703 4.13286 18.6841 5.21082C20.1978 6.28882 21.3381 7.81206 21.9458 9.56824C22.5535 11.3245 22.5984 13.2266 22.0747 15.0096C21.5509 16.7928 20.4849 18.3688 19.0239 19.5175L18.939 19.5839L19.0386 19.6239C21.3951 20.5851 23.4773 22.1145 25.1001 24.0751H25.1011C25.3463 24.367 25.4652 24.745 25.4321 25.1249C25.399 25.5046 25.2162 25.8553 24.9243 26.1005C24.6324 26.3457 24.2553 26.4655 23.8755 26.4325C23.4956 26.3995 23.1442 26.2167 22.8989 25.9247C21.1804 23.8785 18.149 21.4374 13.4995 21.4374C9.86918 21.4375 6.53106 23.0315 4.10107 25.9247C3.85584 26.2166 3.50433 26.3994 3.12451 26.4325C2.74462 26.4655 2.36668 26.3457 2.07471 26.1005C1.78306 25.8553 1.60096 25.5045 1.56787 25.1249C1.53897 24.7924 1.62621 24.4614 1.81299 24.1884L1.89893 24.0751C3.52195 22.1149 5.60422 20.5855 7.96045 19.6239L8.06006 19.5839L7.97607 19.5175C6.51508 18.3688 5.44808 16.7928 4.92432 15.0096C4.40065 13.2266 4.44553 11.3244 5.05322 9.56824C5.66093 7.81205 6.80123 6.28885 8.31494 5.21082C9.82868 4.13281 11.6412 3.55365 13.4995 3.55359ZM27.9995 13.0624C28.3807 13.0624 28.7466 13.2138 29.0161 13.4833C29.2857 13.7528 29.437 14.1187 29.437 14.4999V15.5624H30.4995C30.8807 15.5624 31.2466 15.7138 31.5161 15.9833C31.7857 16.2528 31.937 16.6187 31.937 16.9999C31.937 17.3811 31.7857 17.7469 31.5161 18.0165C31.2465 18.286 30.8807 18.4374 30.4995 18.4374H29.437V19.4999C29.437 19.8811 29.2857 20.2469 29.0161 20.5165C28.7465 20.786 28.3807 20.9374 27.9995 20.9374C27.6184 20.9373 27.2524 20.786 26.9829 20.5165C26.7135 20.2469 26.562 19.881 26.562 19.4999V18.4374H25.4995C25.1184 18.4373 24.7524 18.286 24.4829 18.0165C24.2135 17.7469 24.062 17.381 24.062 16.9999C24.0621 16.6187 24.2134 16.2528 24.4829 15.9833C24.7524 15.7138 25.1184 15.5625 25.4995 15.5624H26.562V14.4999C26.5621 14.1187 26.7134 13.7528 26.9829 13.4833C27.2524 13.2138 27.6184 13.0625 27.9995 13.0624ZM14.6821 6.55359C13.5064 6.31981 12.2877 6.44058 11.1802 6.89929C10.0725 7.3581 9.12562 8.13491 8.45947 9.13171C7.79335 10.1286 7.43705 11.3009 7.43701 12.4999C7.43868 14.1071 8.07793 15.6485 9.21436 16.785C10.3509 17.9215 11.8922 18.5606 13.4995 18.5624C14.6985 18.5624 15.8707 18.207 16.8677 17.5409C17.8646 16.8747 18.6422 15.928 19.1011 14.8202C19.5599 13.7124 19.6797 12.4933 19.4458 11.3173C19.2119 10.1413 18.6345 9.06061 17.7866 8.21277C16.9388 7.36504 15.858 6.78749 14.6821 6.55359Z" fill="#40597B" stroke="#40597B" stroke-width="0.125"/>
</svg>
