<svg width="32" height="32" viewBox="0 0 32 32" fill="none" xmlns="http://www.w3.org/2000/svg">
<path d="M6 3.5625H26C26.6465 3.5625 27.2665 3.81925 27.7236 4.27637C28.1808 4.73349 28.4375 5.35353 28.4375 6V26C28.4375 26.6465 28.1808 27.2665 27.7236 27.7236C27.2665 28.1808 26.6465 28.4375 26 28.4375H6C5.35353 28.4375 4.73349 28.1808 4.27637 27.7236C3.81925 27.2665 3.5625 26.6465 3.5625 26V6C3.5625 5.35353 3.81925 4.73349 4.27637 4.27637C4.73349 3.81925 5.35353 3.5625 6 3.5625ZM6.4375 25.5625H25.5625V6.4375H6.4375V25.5625ZM20.001 10.5576C20.3829 10.5576 20.7495 10.7094 21.0195 10.9795C21.2894 11.2494 21.4413 11.6154 21.4414 11.9971C21.4414 12.379 21.2896 12.7456 21.0195 13.0156L18.0811 15.9561L18.0361 16L18.0811 16.0439L21.0205 18.9834C21.2905 19.2534 21.4423 19.6192 21.4424 20.001C21.4424 20.3829 21.2906 20.7495 21.0205 21.0195C20.7506 21.2894 20.3846 21.4413 20.0029 21.4414C19.621 21.4414 19.2544 21.2896 18.9844 21.0195L16.0439 18.0811L16 18.0361L15.9561 18.0811L13.0166 21.0205C12.7466 21.2905 12.3808 21.4423 11.999 21.4424C11.6171 21.4424 11.2505 21.2906 10.9805 21.0205C10.7106 20.7506 10.5587 20.3847 10.5586 20.0029C10.5586 19.6236 10.7089 19.2598 10.9756 18.9902L10.9834 18.9834L13.9189 16.0439L13.9629 16L13.9189 15.9561L10.9834 13.0166C10.8497 12.8829 10.7433 12.7245 10.6709 12.5498C10.5986 12.3752 10.5616 12.188 10.5615 11.999C10.5615 11.6171 10.7133 11.2505 10.9834 10.9805C11.2534 10.7106 11.6192 10.5587 12.001 10.5586C12.3829 10.5586 12.7495 10.7104 13.0195 10.9805L15.9561 13.9189L16 13.9639L16.0439 13.9189L18.9834 10.9795C19.2534 10.7095 19.6192 10.5577 20.001 10.5576Z" fill="#40597B" stroke="#40597B" stroke-width="0.125"/>
</svg>
